<svg width="81" height="19" viewBox="0 0 81 19" fill="none" xmlns="http://www.w3.org/2000/svg">
<path d="M10.188 5.432C10.032 4.436 9.696 3.686 9.18 3.182C8.676 2.678 8.004 2.42 7.164 2.408C6.54 2.408 5.994 2.552 5.526 2.84C5.058 3.128 4.668 3.512 4.356 3.992C4.056 4.472 3.828 5.018 3.672 5.63C3.528 6.242 3.456 6.872 3.456 7.52C3.456 8.552 3.6 9.47 3.888 10.274C4.188 11.066 4.62 11.69 5.184 12.146C5.748 12.602 6.432 12.83 7.236 12.83C7.992 12.83 8.742 12.638 9.486 12.254C10.23 11.858 10.854 11.312 11.358 10.616L12.222 11.408C11.634 12.212 11.016 12.824 10.368 13.244C9.72 13.652 9.084 13.928 8.46 14.072C7.848 14.216 7.296 14.288 6.804 14.288C5.88 14.288 5.04 14.126 4.284 13.802C3.528 13.466 2.874 13.01 2.322 12.434C1.782 11.846 1.362 11.168 1.062 10.4C0.774 9.62 0.63 8.78 0.63 7.88C0.63 7.064 0.762 6.254 1.026 5.45C1.29 4.646 1.68 3.92 2.196 3.272C2.724 2.612 3.384 2.09 4.176 1.706C4.968 1.31 5.886 1.112 6.93 1.112C7.398 1.112 7.908 1.19 8.46 1.346C9.024 1.49 9.552 1.706 10.044 1.994L9.972 1.238H11.358V5.432H10.188ZM17.5406 14.288C16.6766 14.288 15.8966 14.102 15.2006 13.73C14.5046 13.358 13.9526 12.83 13.5446 12.146C13.1486 11.45 12.9506 10.634 12.9506 9.698C12.9506 8.702 13.1546 7.832 13.5626 7.088C13.9826 6.332 14.5346 5.75 15.2186 5.342C15.9146 4.922 16.6706 4.712 17.4866 4.712C18.3506 4.712 19.1246 4.898 19.8086 5.27C20.4926 5.642 21.0326 6.176 21.4286 6.872C21.8246 7.556 22.0226 8.378 22.0226 9.338C22.0226 10.346 21.8306 11.222 21.4466 11.966C21.0626 12.71 20.5346 13.286 19.8626 13.694C19.1906 14.09 18.4166 14.288 17.5406 14.288ZM17.6126 13.01C18.0926 12.998 18.4526 12.83 18.6926 12.506C18.9446 12.182 19.1186 11.774 19.2146 11.282C19.3106 10.79 19.3586 10.292 19.3586 9.788C19.3586 9.344 19.3226 8.894 19.2506 8.438C19.1906 7.982 19.0886 7.568 18.9446 7.196C18.8006 6.824 18.6026 6.524 18.3506 6.296C18.1106 6.068 17.8106 5.96 17.4506 5.972C16.9826 5.984 16.6106 6.152 16.3346 6.476C16.0706 6.8 15.8786 7.208 15.7586 7.7C15.6506 8.18 15.5966 8.684 15.5966 9.212C15.5966 9.824 15.6626 10.424 15.7946 11.012C15.9266 11.6 16.1366 12.086 16.4246 12.47C16.7246 12.842 17.1206 13.022 17.6126 13.01ZM26.7999 14.288C26.0799 14.288 25.4439 14.102 24.8919 13.73C24.3519 13.358 23.9259 12.83 23.6139 12.146C23.3139 11.462 23.1639 10.658 23.1639 9.734C23.1639 8.762 23.3499 7.898 23.7219 7.142C24.0939 6.386 24.6159 5.792 25.2879 5.36C25.9599 4.928 26.7399 4.712 27.6279 4.712C27.9519 4.712 28.2399 4.748 28.4919 4.82C28.7559 4.88 29.0019 4.952 29.2299 5.036V3.848C29.2299 3.68 29.2359 3.44 29.2479 3.128C29.2599 2.816 29.2779 2.528 29.3019 2.264C29.1099 2.276 28.8819 2.288 28.6179 2.3C28.3539 2.312 28.1559 2.318 28.0239 2.318V0.95C28.5879 0.95 29.0559 0.92 29.4279 0.86C29.8119 0.8 30.1119 0.728 30.3279 0.643999C30.5559 0.56 30.7119 0.482 30.7959 0.409999H31.7679V11.102C31.7679 11.27 31.7619 11.51 31.7499 11.822C31.7379 12.122 31.7199 12.41 31.6959 12.686C31.8999 12.662 32.1159 12.65 32.3439 12.65C32.5719 12.638 32.7459 12.632 32.8659 12.632V14H29.4459C29.4339 13.868 29.4159 13.73 29.3919 13.586C29.3799 13.442 29.3619 13.304 29.3379 13.172C28.9419 13.58 28.5339 13.868 28.1139 14.036C27.6939 14.204 27.2559 14.288 26.7999 14.288ZM27.7359 12.65C28.0479 12.65 28.3359 12.572 28.5999 12.416C28.8639 12.248 29.0739 12.038 29.2299 11.786C29.2299 11.606 29.2299 11.426 29.2299 11.246C29.2299 11.066 29.2299 10.886 29.2299 10.706V6.386C29.1099 6.29 28.9299 6.212 28.6899 6.152C28.4499 6.08 28.2039 6.044 27.9519 6.044C27.3999 6.056 26.9679 6.23 26.6559 6.566C26.3439 6.902 26.1219 7.328 25.9899 7.844C25.8699 8.36 25.8099 8.9 25.8099 9.464C25.8099 9.968 25.8699 10.466 25.9899 10.958C26.1219 11.45 26.3259 11.858 26.6019 12.182C26.8899 12.494 27.2679 12.65 27.7359 12.65ZM38.3145 14.288C37.4385 14.288 36.6645 14.096 35.9925 13.712C35.3205 13.316 34.7985 12.764 34.4265 12.056C34.0545 11.336 33.8685 10.49 33.8685 9.518C33.8685 8.678 34.0545 7.892 34.4265 7.16C34.7985 6.428 35.3205 5.84 35.9925 5.396C36.6765 4.94 37.4685 4.712 38.3685 4.712C38.8725 4.712 39.3645 4.784 39.8445 4.928C40.3245 5.06 40.7565 5.294 41.1405 5.63C41.5365 5.966 41.8485 6.422 42.0765 6.998C42.3165 7.574 42.4305 8.294 42.4185 9.158L36.5145 9.266C36.5145 9.914 36.5925 10.496 36.7485 11.012C36.9165 11.528 37.1865 11.936 37.5585 12.236C37.9305 12.536 38.4285 12.686 39.0525 12.686C39.2925 12.686 39.5625 12.644 39.8625 12.56C40.1745 12.476 40.4865 12.338 40.7985 12.146C41.1225 11.942 41.4225 11.672 41.6985 11.336L42.5085 12.092C42.0765 12.704 41.6145 13.172 41.1225 13.496C40.6305 13.808 40.1385 14.018 39.6465 14.126C39.1665 14.234 38.7225 14.288 38.3145 14.288ZM36.6225 8.006H39.9345C39.9225 7.502 39.8505 7.106 39.7185 6.818C39.5985 6.518 39.4305 6.302 39.2145 6.17C38.9985 6.038 38.7465 5.972 38.4585 5.972C37.9305 5.972 37.5165 6.164 37.2165 6.548C36.9165 6.92 36.7185 7.406 36.6225 8.006ZM50.0764 14.18C49.6684 13.184 49.2604 12.194 48.8524 11.21C48.4564 10.226 48.0544 9.242 47.6464 8.258C47.5504 8.03 47.4244 7.712 47.2684 7.304C47.1244 6.884 46.9684 6.404 46.8004 5.864C46.6444 5.324 46.5004 4.766 46.3684 4.19C46.3924 4.862 46.4104 5.498 46.4224 6.098C46.4344 6.686 46.4344 7.25 46.4224 7.79C46.4224 8.054 46.4224 8.324 46.4224 8.6C46.4224 8.876 46.4164 9.152 46.4044 9.428C46.4044 9.692 46.4044 9.962 46.4044 10.238C46.4044 10.502 46.4044 10.772 46.4044 11.048C46.4044 11.372 46.3924 11.684 46.3684 11.984C46.3564 12.284 46.3384 12.512 46.3144 12.668C46.5184 12.644 46.7644 12.632 47.0524 12.632C47.3524 12.62 47.5624 12.614 47.6824 12.614V14H43.5784V12.812C43.8544 12.8 44.0824 12.764 44.2624 12.704C44.4544 12.644 44.5984 12.506 44.6944 12.29C44.8024 12.074 44.8564 11.726 44.8564 11.246L44.9644 4.352C44.9764 4.028 44.9884 3.716 45.0004 3.416C45.0124 3.116 45.0244 2.888 45.0364 2.732C44.8444 2.744 44.6044 2.756 44.3164 2.768C44.0284 2.768 43.8184 2.774 43.6864 2.786V1.4H47.6644L50.3824 8.366C50.4904 8.642 50.6104 8.966 50.7424 9.338C50.8744 9.698 51.0004 10.052 51.1204 10.4C51.2404 10.736 51.3304 11.006 51.3904 11.21H51.4084C51.5644 10.79 51.7084 10.382 51.8404 9.986C51.9724 9.59 52.1104 9.206 52.2544 8.834C52.7224 7.586 53.1844 6.344 53.6404 5.108C54.1084 3.872 54.5764 2.636 55.0444 1.4H59.2024V2.588C58.9384 2.6 58.7044 2.636 58.5004 2.696C58.2964 2.756 58.1404 2.894 58.0324 3.11C57.9364 3.314 57.8944 3.662 57.9064 4.154L58.1764 11.048C58.2004 11.372 58.2004 11.684 58.1764 11.984C58.1524 12.284 58.1284 12.512 58.1044 12.668C58.3084 12.644 58.5544 12.632 58.8424 12.632C59.1424 12.62 59.3524 12.614 59.4724 12.614V14H54.4684V12.812C54.7444 12.8 54.9784 12.764 55.1704 12.704C55.3744 12.644 55.5244 12.506 55.6204 12.29C55.7284 12.074 55.7704 11.726 55.7464 11.246L55.6024 7.43C55.6024 7.286 55.5904 7.04 55.5664 6.692C55.5424 6.332 55.5184 5.942 55.4944 5.522C55.4824 5.09 55.4704 4.688 55.4584 4.316C55.4224 4.4 55.3864 4.484 55.3504 4.568C55.3144 4.64 55.2844 4.718 55.2604 4.802L51.7504 14.18H50.0764ZM64.9664 14.288C64.1024 14.288 63.3224 14.102 62.6264 13.73C61.9304 13.358 61.3784 12.83 60.9704 12.146C60.5744 11.45 60.3764 10.634 60.3764 9.698C60.3764 8.702 60.5804 7.832 60.9884 7.088C61.4084 6.332 61.9604 5.75 62.6444 5.342C63.3404 4.922 64.0964 4.712 64.9124 4.712C65.7764 4.712 66.5504 4.898 67.2344 5.27C67.9184 5.642 68.4584 6.176 68.8544 6.872C69.2504 7.556 69.4484 8.378 69.4484 9.338C69.4484 10.346 69.2564 11.222 68.8724 11.966C68.4884 12.71 67.9604 13.286 67.2884 13.694C66.6164 14.09 65.8424 14.288 64.9664 14.288ZM65.0384 13.01C65.5184 12.998 65.8784 12.83 66.1184 12.506C66.3704 12.182 66.5444 11.774 66.6404 11.282C66.7364 10.79 66.7844 10.292 66.7844 9.788C66.7844 9.344 66.7484 8.894 66.6764 8.438C66.6164 7.982 66.5144 7.568 66.3704 7.196C66.2264 6.824 66.0284 6.524 65.7764 6.296C65.5364 6.068 65.2364 5.96 64.8764 5.972C64.4084 5.984 64.0364 6.152 63.7604 6.476C63.4964 6.8 63.3044 7.208 63.1844 7.7C63.0764 8.18 63.0224 8.684 63.0224 9.212C63.0224 9.824 63.0884 10.424 63.2204 11.012C63.3524 11.6 63.5624 12.086 63.8504 12.47C64.1504 12.842 64.5464 13.022 65.0384 13.01ZM70.3917 18.878C69.7197 18.878 69.2277 18.722 68.9157 18.41C68.5917 18.11 68.4297 17.774 68.4297 17.402C68.4297 17.09 68.5317 16.808 68.7357 16.556C68.9277 16.316 69.2037 16.19 69.5637 16.178C69.8877 16.166 70.1517 16.262 70.3557 16.466C70.5597 16.67 70.6617 16.928 70.6617 17.24C70.6617 17.288 70.6557 17.336 70.6437 17.384C70.6437 17.432 70.6377 17.486 70.6257 17.546C70.6977 17.594 70.7997 17.618 70.9317 17.618C71.1597 17.618 71.3217 17.54 71.4177 17.384C71.5257 17.24 71.5977 17.06 71.6337 16.844C71.6697 16.628 71.6877 16.436 71.6877 16.268L71.6337 8.24C71.6337 8.024 71.6397 7.778 71.6517 7.502C71.6637 7.214 71.6817 6.938 71.7057 6.674C71.5137 6.686 71.2857 6.698 71.0217 6.71C70.7697 6.71 70.5777 6.716 70.4457 6.728V5.36C71.0097 5.36 71.4777 5.33 71.8497 5.27C72.2337 5.21 72.5337 5.138 72.7497 5.054C72.9777 4.97 73.1337 4.892 73.2177 4.82H74.1897V13.964C74.1897 15.068 74.0217 15.986 73.6857 16.718C73.3617 17.45 72.9117 17.99 72.3357 18.338C71.7597 18.698 71.1117 18.878 70.3917 18.878ZM72.9117 3.398C72.5037 3.398 72.1677 3.254 71.9037 2.966C71.6397 2.678 71.5077 2.33 71.5077 1.922C71.5077 1.514 71.6457 1.166 71.9217 0.877999C72.1977 0.59 72.5217 0.446 72.8937 0.446C73.2777 0.446 73.5957 0.59 73.8477 0.877999C74.1117 1.166 74.2437 1.514 74.2437 1.922C74.2437 2.33 74.1237 2.678 73.8837 2.966C73.6437 3.254 73.3197 3.398 72.9117 3.398ZM75.8669 12.83C76.2029 12.83 76.4429 12.764 76.5869 12.632C76.7309 12.5 76.8209 12.314 76.8569 12.074C76.9049 11.822 76.9289 11.54 76.9289 11.228V8.24C76.9289 8.024 76.9349 7.778 76.9469 7.502C76.9589 7.214 76.9769 6.938 77.0009 6.674C76.8089 6.686 76.5809 6.698 76.3169 6.71C76.0649 6.71 75.8729 6.716 75.7409 6.728V5.36C76.2929 5.36 76.7609 5.33 77.1449 5.27C77.5289 5.21 77.8289 5.138 78.0449 5.054C78.2729 4.97 78.4289 4.892 78.5129 4.82H79.4849V11.102C79.4849 11.27 79.4789 11.51 79.4669 11.822C79.4549 12.122 79.4369 12.41 79.4129 12.686C79.6049 12.662 79.8149 12.65 80.0429 12.65C80.2829 12.638 80.4629 12.632 80.5829 12.632V14H75.8669V12.83ZM78.1169 3.398C77.7089 3.398 77.3729 3.254 77.1089 2.966C76.8449 2.678 76.7129 2.33 76.7129 1.922C76.7129 1.514 76.8509 1.166 77.1269 0.877999C77.4029 0.59 77.7269 0.446 78.0989 0.446C78.4829 0.446 78.8009 0.59 79.0529 0.877999C79.3169 1.166 79.4489 1.514 79.4489 1.922C79.4489 2.33 79.3289 2.678 79.0889 2.966C78.8489 3.254 78.5249 3.398 78.1169 3.398Z" fill="#2F2F2F"/>
</svg>
